<svg width="24.000000" height="24.000000" viewBox="0 0 24 24" fill="none" xmlns="http://www.w3.org/2000/svg" xmlns:xlink="http://www.w3.org/1999/xlink">
	<desc>
			Created with Pixso.
	</desc>
	<defs>
		<clipPath id="clip122_18">
			<rect id="Header → Nav → Link → SVG" width="24.000000" height="24.000000" transform="translate(-0.207520 -0.785156)" fill="white" fill-opacity="0"/>
		</clipPath>
	</defs>
	<g clip-path="url(#clip122_18)">
		<path id="Vector" d="M5.79 5.21C5.79 4.15 6.21 3.13 6.96 2.38C7.71 1.63 8.73 1.21 9.79 1.21L13.79 1.21C14.85 1.21 15.87 1.63 16.62 2.38C17.37 3.13 17.79 4.15 17.79 5.21L17.79 7.21L22.92 7.21L21.61 17.71C21.49 18.67 21.02 19.56 20.29 20.21C19.55 20.85 18.61 21.21 17.64 21.21L5.94 21.21C4.96 21.21 4.02 20.85 3.29 20.21C2.56 19.56 2.09 18.67 1.97 17.71L0.65 7.21L5.79 7.21L5.79 5.21ZM11.79 7.21C12.05 7.21 12.31 7.32 12.49 7.5C12.68 7.69 12.79 7.94 12.79 8.21C12.79 8.48 12.68 8.73 12.49 8.92C12.31 9.1 12.05 9.21 11.79 9.21L2.92 9.21L3.95 17.46C4.01 17.94 4.25 18.39 4.61 18.71C4.98 19.03 5.45 19.21 5.94 19.21L17.64 19.21C18.13 19.21 18.6 19.03 18.96 18.71C19.33 18.39 19.56 17.94 19.62 17.46L20.65 9.21L15.79 9.21L15.79 5.21C15.79 4.68 15.58 4.17 15.2 3.8C14.83 3.42 14.32 3.21 13.79 3.21L9.79 3.21C9.26 3.21 8.75 3.42 8.37 3.8C8 4.17 7.79 4.68 7.79 5.21L7.79 7.21L11.79 7.21Z" fill="#001A34" fill-opacity="1.000000" fill-rule="nonzero"/>
	</g>
</svg>
