<svg width="21.000000" height="21.000000" viewBox="0 0 21 21" fill="none" xmlns="http://www.w3.org/2000/svg" xmlns:xlink="http://www.w3.org/1999/xlink">
	<desc>
			Created with Pixso.
	</desc>
	<defs/>
	<path id="Vector" d="M7.78 15.84C6.2 15.84 4.66 15.37 3.34 14.49C2.03 13.62 1 12.37 0.4 10.91C-0.21 9.44 -0.37 7.84 -0.06 6.29C0.25 4.73 1.01 3.31 2.13 2.19C3.25 1.07 4.67 0.31 6.22 0C7.77 -0.31 9.38 -0.15 10.84 0.46C12.3 1.06 13.55 2.09 14.43 3.4C15.31 4.72 15.78 6.26 15.78 7.85C15.78 8.11 15.67 8.37 15.49 8.55C15.3 8.74 15.04 8.85 14.78 8.85C14.51 8.85 14.26 8.74 14.07 8.55C13.88 8.37 13.78 8.11 13.78 7.85C13.78 6.46 13.3 5.11 12.42 4.04C11.54 2.97 10.31 2.24 8.95 1.96C7.59 1.69 6.18 1.9 4.96 2.56C3.73 3.21 2.77 4.27 2.24 5.55C1.71 6.83 1.64 8.26 2.04 9.59C2.45 10.91 3.3 12.06 4.45 12.83C5.6 13.6 6.99 13.95 8.37 13.81C9.75 13.68 11.04 13.07 12.02 12.09L12.73 11.38L19.84 18.49C20.03 18.68 20.13 18.93 20.13 19.2C20.12 19.46 20.02 19.71 19.83 19.89C19.65 20.08 19.4 20.18 19.13 20.19C18.87 20.19 18.62 20.09 18.43 19.91L12.69 14.16C11.28 15.25 9.56 15.84 7.78 15.84L7.78 15.84Z" fill="#FFFFFF" fill-opacity="1.000000" fill-rule="nonzero"/>
</svg>
