<svg width="20.000000" height="15.000000" viewBox="0 0 20 15" fill="none" xmlns="http://www.w3.org/2000/svg" xmlns:xlink="http://www.w3.org/1999/xlink">
	<desc>
			Created with Pixso.
	</desc>
	<defs/>
	<path id="Vector" d="M6.87 0L18.87 0C19.14 0 19.39 0.1 19.58 0.29C19.77 0.48 19.87 0.73 19.87 1C19.87 1.26 19.77 1.51 19.58 1.7C19.39 1.89 19.14 2 18.87 2L6.87 2C6.61 2 6.36 1.89 6.17 1.7C5.98 1.51 5.87 1.26 5.87 1C5.87 0.73 5.98 0.48 6.17 0.29C6.36 0.1 6.61 0 6.87 0ZM6.87 6L18.87 6C19.14 6 19.39 6.1 19.58 6.29C19.77 6.48 19.87 6.73 19.87 7C19.87 7.26 19.77 7.51 19.58 7.7C19.39 7.89 19.14 8 18.87 8L6.87 8C6.61 8 6.36 7.89 6.17 7.7C5.98 7.51 5.87 7.26 5.87 7C5.87 6.73 5.98 6.48 6.17 6.29C6.36 6.1 6.61 6 6.87 6ZM6.87 12L12.87 12C13.14 12 13.39 12.1 13.58 12.29C13.77 12.48 13.87 12.73 13.87 13C13.87 13.26 13.77 13.51 13.58 13.7C13.39 13.89 13.14 14 12.87 14L6.87 14C6.61 14 6.36 13.89 6.17 13.7C5.98 13.51 5.87 13.26 5.87 13C5.87 12.73 5.98 12.48 6.17 12.29C6.36 12.1 6.61 12 6.87 12ZM1.37 2.5C0.98 2.5 0.6 2.34 0.31 2.06C0.03 1.77 -0.13 1.39 -0.13 1C-0.13 0.6 0.03 0.22 0.31 -0.07C0.6 -0.35 0.98 -0.5 1.37 -0.5C1.77 -0.5 2.15 -0.35 2.44 -0.07C2.72 0.22 2.87 0.6 2.87 1C2.87 1.39 2.72 1.77 2.44 2.06C2.15 2.34 1.77 2.5 1.37 2.5ZM1.37 8.5C0.98 8.5 0.6 8.34 0.31 8.06C0.03 7.77 -0.13 7.39 -0.13 7C-0.13 6.6 0.03 6.22 0.31 5.93C0.6 5.65 0.98 5.5 1.37 5.5C1.77 5.5 2.15 5.65 2.44 5.93C2.72 6.22 2.87 6.6 2.87 7C2.87 7.39 2.72 7.77 2.44 8.06C2.15 8.34 1.77 8.5 1.37 8.5ZM1.37 14.5C0.98 14.5 0.6 14.34 0.31 14.06C0.03 13.77 -0.13 13.39 -0.13 13C-0.13 12.6 0.03 12.22 0.31 11.93C0.6 11.65 0.98 11.5 1.37 11.5C1.77 11.5 2.15 11.65 2.44 11.93C2.72 12.22 2.87 12.6 2.87 13C2.87 13.39 2.72 13.77 2.44 14.06C2.15 14.34 1.77 14.5 1.37 14.5Z" fill="#FFFFFF" fill-opacity="1.000000" fill-rule="nonzero"/>
</svg>
